<?xml version="1.0" standalone="no"?><!DOCTYPE svg PUBLIC "-//W3C//DTD SVG 1.1//EN" "http://www.w3.org/Graphics/SVG/1.1/DTD/svg11.dtd"><svg t="1634311510195" class="icon" viewBox="0 0 1024 1024" version="1.1" xmlns="http://www.w3.org/2000/svg" p-id="3216" xmlns:xlink="http://www.w3.org/1999/xlink" width="200" height="200"><defs><style type="text/css"></style></defs><path d="M911.5648 188.01664H500.06016L437.55008 78.62784H145.84832l-31.25248 109.3888h-5.20704C48.97792 188.01664 0 236.98944 0 297.40544v546.93888c0 60.41088 48.97792 109.38368 109.3888 109.38368H911.5648c60.41088 0 109.3888-48.9728 109.3888-109.38368V297.40544c0-60.416-48.97792-109.3888-109.3888-109.3888z m-382.85824 619.86304c-130.8928 0-237.0048-106.112-237.0048-237.0048 0-130.89792 106.112-237.00992 237.0048-237.00992 130.89792 0 237.00992 106.112 237.00992 237.00992 0 130.8928-106.112 237.0048-237.00992 237.0048z m0 0" fill="#bfbfbf" p-id="3217"></path><path d="M364.62592 570.87488c0 21.4784 4.2752 42.94656 12.4928 62.78656a164.48512 164.48512 0 0 0 35.56864 53.23264 164.45952 164.45952 0 0 0 53.22752 35.56864 164.66432 164.66432 0 0 0 62.79168 12.4928c21.48352 0 42.94656-4.2752 62.79168-12.4928a164.48512 164.48512 0 0 0 53.23264-35.56864 164.78208 164.78208 0 0 0 35.56864-53.23264 164.608 164.608 0 0 0 12.48256-62.78656c0-21.48352-4.26496-42.95168-12.48256-62.79168a164.73088 164.73088 0 0 0-35.56864-53.23264 164.61824 164.61824 0 0 0-53.23264-35.56864 164.64384 164.64384 0 0 0-62.79168-12.4928c-21.4784 0-42.94656 4.2752-62.79168 12.4928a164.62336 164.62336 0 0 0-53.22752 35.56864 164.53632 164.53632 0 0 0-35.56864 53.23264 164.608 164.608 0 0 0-12.4928 62.79168z m0 0" fill="#bfbfbf" p-id="3218"></path></svg>